<svg xmlns="http://www.w3.org/2000/svg" xmlns:xlink="http://www.w3.org/1999/xlink" viewBox="0 0 364 48"><defs><linearGradient id="c" x1="-340.19" y1="174.44" x2="-298.19" y2="174.44" gradientTransform="rotate(-90 -143.815 -151.375)" gradientUnits="userSpaceOnUse"><stop offset="0" stop-color="#1a1a1a"/><stop offset=".04" stop-color="#343434"/><stop offset=".08" stop-color="#494949"/><stop offset=".12" stop-color="#585858"/><stop offset=".18" stop-color="#606060"/><stop offset=".26" stop-color="#636363"/><stop offset=".32" stop-color="#4d4d4d"/><stop offset=".41" stop-color="#333"/><stop offset=".51" stop-color="#212121"/><stop offset=".61" stop-color="#161616"/><stop offset=".72" stop-color="#121212"/><stop offset=".92" stop-color="#060606"/><stop offset="1"/></linearGradient><linearGradient id="a" x1="20" y1="3" x2="20" y2="45" gradientUnits="userSpaceOnUse"><stop offset="0" stop-color="#1a1a1a"/><stop offset=".09" stop-color="#353535"/><stop offset=".19" stop-color="#4e4e4e"/><stop offset=".28" stop-color="#5e5e5e"/><stop offset=".36" stop-color="#636363"/><stop offset=".41" stop-color="#575757"/><stop offset=".57" stop-color="#323232"/><stop offset=".71" stop-color="#1a1a1a"/><stop offset=".79" stop-color="#121212"/><stop offset=".94" stop-color="#060606"/><stop offset="1"/></linearGradient><linearGradient id="d" x1="56" y1="3" x2="56" y2="45" xlink:href="#a"/><linearGradient id="e" x1="92" y1="3" x2="92" y2="45" xlink:href="#a"/><linearGradient id="f" x1="128" y1="3" x2="128" y2="45" xlink:href="#a"/><linearGradient id="g" x1="164" y1="3" x2="164" y2="45" xlink:href="#a"/><linearGradient id="h" x1="200" y1="3" x2="200" y2="45" xlink:href="#a"/><linearGradient id="i" x1="236" y1="3" x2="236" y2="45" xlink:href="#a"/><linearGradient id="j" x1="272" y1="3" x2="272" y2="45" xlink:href="#a"/><linearGradient id="b" x1="308" y1="3" x2="308" y2="45" gradientUnits="userSpaceOnUse"><stop offset="0" stop-color="#00592e"/><stop offset="0" stop-color="#025a2f"/><stop offset=".06" stop-color="#297940"/><stop offset=".12" stop-color="#4a924e"/><stop offset=".18" stop-color="#63a559"/><stop offset=".24" stop-color="#75b361"/><stop offset=".31" stop-color="#80bb65"/><stop offset=".39" stop-color="#83be67"/><stop offset=".44" stop-color="#7cbb65"/><stop offset=".52" stop-color="#69b35e"/><stop offset=".6" stop-color="#49a553"/><stop offset=".7" stop-color="#1e9343"/><stop offset=".76" stop-color="#008639"/><stop offset=".85" stop-color="#007a36"/><stop offset="1" stop-color="#005a2e"/><stop offset="1" stop-color="#00592e"/></linearGradient><linearGradient id="k" x1="344" y1="3" x2="344" y2="45" xlink:href="#b"/></defs><title>Discovergy-logo--screenSmall</title><g style="isolation:isolate"><path d="M364 48H0V0h364v48zm-3-45H3v42h358V3z"/><path fill="url(#c)" d="M3 3h358v42H3z"/><path fill="url(#a)" d="M3 3h34v42H3z"/><path fill="url(#d)" d="M39 3h34v42H39z"/><path fill="url(#e)" d="M75 3h34v42H75z"/><path fill="url(#f)" d="M111 3h34v42h-34z"/><path fill="url(#g)" d="M147 3h34v42h-34z"/><path fill="url(#h)" d="M183 3h34v42h-34z"/><path fill="url(#i)" d="M219 3h34v42h-34z"/><path fill="url(#j)" d="M255 3h34v42h-34z"/><path fill="url(#b)" d="M291 3h34v42h-34z"/><path fill="url(#k)" d="M327 3h34v42h-34z"/><image width="26" height="28" transform="translate(8 11)" opacity=".36" xlink:href="Discovergy-logo--screenSmall1.png" style="mix-blend-mode:multiply"/><path d="M26 16.46a10.25 10.25 0 0 0-7.34-3h-5.59a2.1 2.1 0 0 0-1.6.69 2.23 2.23 0 0 0-.64 1.55v16.62a2.12 2.12 0 0 0 .68 1.6 2.21 2.21 0 0 0 1.57.64h5.59a10 10 0 0 0 7.44-3.17A10.31 10.31 0 0 0 29.18 24 10.13 10.13 0 0 0 26 16.46zm-3 11.92a6 6 0 0 1-4.32 1.69h-3.39V17.93h3.37A5.73 5.73 0 0 1 23 19.65 6.24 6.24 0 0 1 24.81 24 5.76 5.76 0 0 1 23 28.38z" fill="#fff"/><image width="12" height="28" transform="translate(51 11)" opacity=".36" xlink:href="Discovergy-logo--screenSmall2.png" style="mix-blend-mode:multiply"/><path d="M56 13.45a2.08 2.08 0 0 1 1.54.66 2.16 2.16 0 0 1 .64 1.55v16.67a2.14 2.14 0 0 1-.64 1.57 2.1 2.1 0 0 1-1.54.64 2.18 2.18 0 0 1-1.6-.64 2.14 2.14 0 0 1-.64-1.57V15.67A2.23 2.23 0 0 1 56 13.45z" fill="#fff"/><image width="22" height="28" transform="translate(82 11)" opacity=".36" xlink:href="Discovergy-logo--screenSmall3.png" style="mix-blend-mode:multiply"/><path d="M93.14 30.22a2.87 2.87 0 0 0 1.32-.55 1.69 1.69 0 0 0 .6-1.27 1.53 1.53 0 0 0-.56-1.21 3.16 3.16 0 0 0-1.29-.58l-2.31-.4a9.92 9.92 0 0 1-2.35-.61 6 6 0 0 1-2-1.32 6.63 6.63 0 0 1-1.42-2.07 5.75 5.75 0 0 1-.5-2.51 6 6 0 0 1 .5-2.43 5.73 5.73 0 0 1 1.37-2A6.94 6.94 0 0 1 88.54 14a7.6 7.6 0 0 1 1.75-.46 9.26 9.26 0 0 1 1.59-.13 8.13 8.13 0 0 1 1.72.17 7.61 7.61 0 0 1 2.51.89A6.93 6.93 0 0 1 98 15.91a4.24 4.24 0 0 1 .35.5 2.92 2.92 0 0 1 .28.6 2.18 2.18 0 0 1-.3 1.69 2.14 2.14 0 0 1-1.42 1 1.77 1.77 0 0 1-1.26-.12 5.49 5.49 0 0 1-1-.71 4.2 4.2 0 0 0-1.11-.87 3.27 3.27 0 0 0-1.5-.28 5 5 0 0 0-1.6.21 2.3 2.3 0 0 0-1 .68 1.95 1.95 0 0 0 .15 2.53 2.51 2.51 0 0 0 1.5.64l2.12.3a11.88 11.88 0 0 1 3 .83 6 6 0 0 1 2.08 1.36 4.44 4.44 0 0 1 1 1.64 7.45 7.45 0 0 1 .28 2.23 6.57 6.57 0 0 1-.53 2.4 6.38 6.38 0 0 1-1.37 2.05 6.6 6.6 0 0 1-2.1 1.41 6.5 6.5 0 0 1-2.46.55h-.53a4 4 0 0 1-.73 0 8.1 8.1 0 0 1-1.72-.17 7.58 7.58 0 0 1-2.51-.89 7.31 7.31 0 0 1-2.78-2.78 3.37 3.37 0 0 1-.25-.56 1.89 1.89 0 0 1-.12-.63 2.26 2.26 0 0 1 2.25-2.25 1.82 1.82 0 0 1 1.19.38 4.08 4.08 0 0 1 .83.94 3.13 3.13 0 0 0 1 1.06 4.22 4.22 0 0 0 1 .51 3.82 3.82 0 0 0 .91.13 10.88 10.88 0 0 0 1.49-.07z" fill="#fff"/><image width="26" height="28" transform="translate(116 11)" opacity=".36" xlink:href="Discovergy-logo--screenSmall4.png" style="mix-blend-mode:multiply"/><path d="M118.46 24a10.25 10.25 0 0 1 .83-4.1 10.81 10.81 0 0 1 2.25-3.36 10.49 10.49 0 0 1 7.46-3.09 10 10 0 0 1 4.6 1.07 10.93 10.93 0 0 1 3.57 2.86 1.84 1.84 0 0 1 .36 1.12 2.08 2.08 0 0 1-.69 1.55 2.4 2.4 0 0 1-1.62.69 1.74 1.74 0 0 1-1.32-.5 6.49 6.49 0 0 0-2.13-1.75 5.9 5.9 0 0 0-2.76-.66 6 6 0 0 0-2.38.48 6.19 6.19 0 0 0-2 1.32 6.48 6.48 0 0 0-1.34 2 5.64 5.64 0 0 0-.5 2.33 6.2 6.2 0 0 0 .48 2.43 6.14 6.14 0 0 0 5.7 3.79 5.9 5.9 0 0 0 2.76-.66 6.49 6.49 0 0 0 2.13-1.75 1.91 1.91 0 0 1 1.36-.46 2.2 2.2 0 0 1 1.62.66 2 2 0 0 1 .66 1.46 1.93 1.93 0 0 1-.36 1.22 10.93 10.93 0 0 1-3.57 2.86 10 10 0 0 1-4.6 1.07 10.5 10.5 0 0 1-7.47-3.09 10.81 10.81 0 0 1-2.25-3.36 10.25 10.25 0 0 1-.79-4.13z" fill="#fff"/><image width="28" height="28" transform="translate(151 11)" opacity=".36" xlink:href="Discovergy-logo--screenSmall5.png" style="mix-blend-mode:multiply"/><path d="M173.7 19.9a10.82 10.82 0 0 0-2.25-3.36 10.48 10.48 0 0 0-3.34-2.27 10.26 10.26 0 0 0-4.1-.83 10.49 10.49 0 0 0-7.47 3.09 10.81 10.81 0 0 0-2.25 3.36 10.58 10.58 0 0 0 0 8.2 10.81 10.81 0 0 0 2.25 3.36 10.5 10.5 0 0 0 7.46 3.1 10.24 10.24 0 0 0 4.1-.83 10.47 10.47 0 0 0 3.34-2.26 10.82 10.82 0 0 0 2.25-3.36 10.58 10.58 0 0 0 .01-8.2zm-4 6.51a6.21 6.21 0 0 1-3.27 3.29 6 6 0 0 1-2.4.48 6.09 6.09 0 0 1-2.41-.48 6.16 6.16 0 0 1-3.29-3.29 6.08 6.08 0 0 1-.48-2.41 6 6 0 0 1 .48-2.4 6.21 6.21 0 0 1 3.29-3.27 6.09 6.09 0 0 1 2.41-.48 6 6 0 0 1 2.4.48 6.25 6.25 0 0 1 3.27 3.27 6 6 0 0 1 .48 2.4 6.09 6.09 0 0 1-.49 2.41z" fill="#fff"/><image width="24" height="28" transform="translate(189 11)" opacity=".36" xlink:href="Discovergy-logo--screenSmall6.png" style="mix-blend-mode:multiply"/><path d="M202.1 33.12a2.28 2.28 0 0 1-.84 1.06 2.15 2.15 0 0 1-1.24.4 2.06 2.06 0 0 1-1.22-.43 2.52 2.52 0 0 1-.86-1l-6.48-16.63a2.13 2.13 0 0 1 0-1.7 2.29 2.29 0 0 1 1.24-1.21 2.13 2.13 0 0 1 1.7 0 2.16 2.16 0 0 1 1.17 1.27L200 26.21l4.4-11.31a2.16 2.16 0 0 1 1.17-1.27 2.13 2.13 0 0 1 1.7 0 2.23 2.23 0 0 1 1.22 1.21 2.18 2.18 0 0 1 0 1.7z" fill="#fff"/><image width="20" height="28" transform="translate(227 11)" opacity=".36" xlink:href="Discovergy-logo--screenSmall7.png" style="mix-blend-mode:multiply"/><path d="M240.73 30.1a2.11 2.11 0 0 1 1.57.66 2.15 2.15 0 0 1 .64 1.55 2.18 2.18 0 0 1-.64 1.6 2.14 2.14 0 0 1-1.57.64h-9.46a2.17 2.17 0 0 1-1.54-.64 2.12 2.12 0 0 1-.68-1.6V15.68a2.26 2.26 0 0 1 .63-1.55 2 2 0 0 1 1.59-.69h9.46a2.11 2.11 0 0 1 1.57.66 2.19 2.19 0 0 1 .64 1.59 2.12 2.12 0 0 1-.64 1.59 2.17 2.17 0 0 1-1.57.63h-7.27v3.77h5.06a2.13 2.13 0 0 1 1.55.66 2.17 2.17 0 0 1 .66 1.59 2.11 2.11 0 0 1-.66 1.57 2.16 2.16 0 0 1-1.55.64h-5.06v4h7.27z" fill="#fff"/><image width="22" height="28" transform="translate(262 11)" opacity=".36" xlink:href="Discovergy-logo--screenSmall8.png" style="mix-blend-mode:multiply"/><path d="M278.2 25.19a7.3 7.3 0 0 0 1.29-4.25 7.11 7.11 0 0 0-.61-2.93 7.72 7.72 0 0 0-1.64-2.38 7.88 7.88 0 0 0-2.38-1.6 6.92 6.92 0 0 0-2.81-.6 7.08 7.08 0 0 0-2.94.61 8 8 0 0 0-2.38 1.64 7.43 7.43 0 0 0-1.6 2.4 7.72 7.72 0 0 0-.61 2.86v11.38a2.23 2.23 0 0 0 2.22 2.25 2.19 2.19 0 0 0 1.59-.64 2.15 2.15 0 0 0 .66-1.6v-3.8l5.42 5.42a2.28 2.28 0 0 0 3.14 0 2 2 0 0 0 .48-.74 2.46 2.46 0 0 0 0-1.69 2 2 0 0 0-.48-.74L274.76 28a7.86 7.86 0 0 0 3.44-2.81zm-4-2.05a3 3 0 0 1-2.2.86 2.91 2.91 0 0 1-1.19-.25 3 3 0 0 1-1-.68 3.37 3.37 0 0 1-.66-1 2.84 2.84 0 0 1-.25-1.16 3.1 3.1 0 0 1 .23-1.19 2.83 2.83 0 0 1 .66-1 3.19 3.19 0 0 1 1-.64 3.06 3.06 0 0 1 1.21-.18 3 3 0 0 1 1.16.23 3 3 0 0 1 1 .64 3.2 3.2 0 0 1 .66 1 3.07 3.07 0 0 1-.64 3.37z" fill="#fff"/><image width="26" height="28" transform="translate(296 11)" opacity=".36" xlink:href="Discovergy-logo--screenSmall9.png" style="mix-blend-mode:multiply"/><path d="M298.21 24a10.25 10.25 0 0 1 .83-4.1 10.81 10.81 0 0 1 2.25-3.36 10.49 10.49 0 0 1 7.47-3.09 10 10 0 0 1 4.6 1.07 10.93 10.93 0 0 1 3.57 2.86 1.63 1.63 0 0 1 .36 1.09 2.16 2.16 0 0 1-.69 1.6 2.25 2.25 0 0 1-1.62.68 1.72 1.72 0 0 1-1.32-.5 6.49 6.49 0 0 0-2.13-1.75 5.9 5.9 0 0 0-2.76-.66 6.09 6.09 0 0 0-2.41.48 6.21 6.21 0 0 0-3.29 3.27 6 6 0 0 0-.48 2.4 6.09 6.09 0 0 0 .48 2.41 6.16 6.16 0 0 0 3.29 3.29 6.09 6.09 0 0 0 2.41.48 6 6 0 0 0 2.33-.45 6.54 6.54 0 0 0 1.9-1.22 2.17 2.17 0 0 0 .36-1.46 2.2 2.2 0 0 1-2.25-2.25 2 2 0 0 1 .64-1.52 2.21 2.21 0 0 1 1.6-.63h2.18a2.15 2.15 0 0 1 1.59.63 2.07 2.07 0 0 1 .63 1.52V27a6.76 6.76 0 0 1-.45 2.81 5.21 5.21 0 0 1-.94 1.42 10.27 10.27 0 0 1-3.36 2.46 10.57 10.57 0 0 1-11.69-2.23A10.81 10.81 0 0 1 299 28.1a10.25 10.25 0 0 1-.79-4.1z" fill="#fff"/><image width="28" height="28" transform="translate(331 11)" opacity=".36" xlink:href="Discovergy-logo--screenSmall10.png" style="mix-blend-mode:multiply"/><path d="M334.3 13.92a2.23 2.23 0 0 1 1.7-.5 2.31 2.31 0 0 1 1.6.86l6.4 7.88 6.41-7.87a2.31 2.31 0 0 1 1.6-.86 2.3 2.3 0 0 1 2.55 2.08 2.37 2.37 0 0 1-.51 1.72l-7.74 9.49v5.52a2.37 2.37 0 0 1-2.31 2.35 2.2 2.2 0 0 1-1.64-.69 2.28 2.28 0 0 1-.68-1.65v-5.56L334 17.23a2.37 2.37 0 0 1-.51-1.72 2.23 2.23 0 0 1 .81-1.59z" fill="#fff"/></g></svg>